<?xml version="1.0" encoding="UTF-8"?>
<svg width="18px" height="18px" viewBox="0 0 18 18" version="1.1" xmlns="http://www.w3.org/2000/svg" xmlns:xlink="http://www.w3.org/1999/xlink">
    <title>画板备份</title>
    <g id="页面-1" stroke="none" stroke-width="1" fill="none" fill-rule="evenodd">
        <g id="画板" transform="translate(-334.000000, -111.000000)" fill="#6798F5" fill-rule="nonzero">
            <g id="菜单-三道杠" transform="translate(335.000000, 114.000000)">
                <path d="M0,11.3750789 L16,11.3750789 L16,12.999973 L0,12.999973 L0,11.3750789 Z M0,5.68740463 L16,5.68740463 L16,7.3125765 L0,7.3125765 L0,5.68740463 Z M0,0 L16,0 L16,1.62517188 L0,1.62517188 L0,0 Z M0,11.3751058 L16,11.3751058 L16,13 L0,13 L0,11.3751058 Z M0,5.68743159 L16,5.68743159 L16,7.31260346 L0,7.31260346 L0,5.68743159 Z M0,2.69607853e-05 L16,2.69607853e-05 L16,1.62519884 L0,1.62519884 L0,2.69607853e-05 Z" id="形状"></path>
            </g>
        </g>
    </g>
</svg>