<?xml version="1.0" encoding="UTF-8"?>
<svg width="18px" height="18px" viewBox="0 0 18 18" version="1.1" xmlns="http://www.w3.org/2000/svg" xmlns:xlink="http://www.w3.org/1999/xlink">
    <title>画板</title>
    <g id="页面-1" stroke="none" stroke-width="1" fill="none" fill-rule="evenodd">
        <g id="画板" transform="translate(-280.000000, -111.000000)" fill-rule="nonzero" stroke="#6798F5">
            <g id="星星-线" transform="translate(281.000000, 113.000000)">
                <path d="M3.28677267,14.998406 C3.17636042,14.998406 3.07422972,14.9495424 3.00246111,14.8681031 C2.93069312,14.7866637 2.90309006,14.678078 2.91965193,14.5694925 L3.78638711,9.59626802 L0.112426119,6.07808335 C0.010294806,5.98035607 -0.0255891898,5.83648042 0.01857574,5.70346303 C0.0627406699,5.57044549 0.178673282,5.47543235 0.319449161,5.45371615 L5.39564934,4.72890585 L7.66461908,0.203598826 C7.72810614,0.0787250822 7.85784036,0 7.99861624,0 C8.13939181,0 8.26912572,0.0787247781 8.33261339,0.203598826 L10.6015831,4.72890585 L15.6805508,5.45371615 C15.8213264,5.47271866 15.9372598,5.57044594 15.9814243,5.70346303 C16.0255892,5.83648073 15.9897052,5.98035743 15.8875739,6.07808335 L12.2136129,9.59897457 L13.0803481,14.572199 C13.1051909,14.7106459 13.0472243,14.8490934 12.9312916,14.9305329 C12.8153588,15.0119723 12.6663017,15.0228309 12.5393279,14.9576794 L7.99862088,12.6095113 L3.45791388,14.9576794 C3.40546801,14.9848259 3.34750163,14.998399 3.2867756,14.998399 L3.28677267,14.998406 Z" id="形状"></path>
            </g>
        </g>
    </g>
</svg>